<svg width="283" height="64" viewBox="0 0 283 64" fill="none" xmlns="http://www.w3.org/2000/svg">
<path d="M141.04 16.25C135.64 16.25 131.28 20.6 131.28 26C131.28 31.4 135.64 35.75 141.04 35.75C146.44 35.75 150.8 31.4 150.8 26C150.8 20.6 146.44 16.25 141.04 16.25ZM36.64 0.5L73.28 64H0L36.64 0.5ZM170.54 16.25C165.14 16.25 160.78 20.6 160.78 26C160.78 31.4 165.14 35.75 170.54 35.75C175.94 35.75 180.3 31.4 180.3 26C180.3 20.6 175.94 16.25 170.54 16.25ZM221.84 16.25C216.44 16.25 212.08 20.6 212.08 26C212.08 31.4 216.44 35.75 221.84 35.75C227.24 35.75 231.6 31.4 231.6 26C231.6 20.6 227.24 16.25 221.84 16.25ZM251.34 16.25C245.94 16.25 241.58 20.6 241.58 26C241.58 31.4 245.94 35.75 251.34 35.75C256.74 35.75 261.1 31.4 261.1 26C261.1 20.6 256.74 16.25 251.34 16.25Z" fill="white"/>
</svg>

